<svg t="1569311878774" class="icon" viewBox="0 0 1082 1024" version="1.1" xmlns="http://www.w3.org/2000/svg" p-id="3636" width="200" height="200"><path d="M877.714286 1024H204.8A204.8 204.8 0 0 1 0 819.2V424.228571a29.257143 29.257143 0 0 1 29.257143-29.257142h1024a29.257143 29.257143 0 0 1 29.257143 29.257142v394.971429a204.8 204.8 0 0 1-204.8 204.8zM58.514286 453.485714v365.714286a146.285714 146.285714 0 0 0 146.285714 146.285714h672.914286a146.285714 146.285714 0 0 0 146.285714-146.285714V453.485714z" fill="" p-id="3637"></path><path d="M321.828571 453.485714H146.285714a29.257143 29.257143 0 0 1-29.257143-29.257143V29.257143a29.257143 29.257143 0 0 1 29.257143-29.257143h175.542857a29.257143 29.257143 0 0 1 29.257143 29.257143v394.971428a29.257143 29.257143 0 0 1-29.257143 29.257143z m-146.285714-58.514285h117.028572V58.514286h-117.028572zM950.857143 453.485714H775.314286a29.257143 29.257143 0 0 1-29.257143-29.257143V29.257143a29.257143 29.257143 0 0 1 29.257143-29.257143h175.542857a29.257143 29.257143 0 0 1 29.257143 29.257143v394.971428a29.257143 29.257143 0 0 1-29.257143 29.257143z m-146.285714-58.514285h117.028571V58.514286h-117.028571zM471.04 438.857143a29.257143 29.257143 0 0 1-28.233143-21.650286L356.790857 96.256a29.257143 29.257143 0 0 1 20.626286-35.84L547.108571 14.628571a29.257143 29.257143 0 0 1 35.693715 20.626286l94.354285 351.085714a29.257143 29.257143 0 0 1-56.612571 14.628572l-86.601143-321.828572-113.078857 30.281143 78.409143 292.571429a29.257143 29.257143 0 0 1-20.626286 35.84 27.940571 27.940571 0 0 1-7.606857 1.024z" fill="" p-id="3638"></path></svg>