<?xml version="1.0" standalone="no"?><!DOCTYPE svg PUBLIC "-//W3C//DTD SVG 1.1//EN" "http://www.w3.org/Graphics/SVG/1.1/DTD/svg11.dtd"><svg t="1568103455695" class="icon" viewBox="0 0 1024 1024" version="1.1" xmlns="http://www.w3.org/2000/svg" p-id="2375" xmlns:xlink="http://www.w3.org/1999/xlink" width="200" height="200"><defs><style type="text/css"></style></defs><path d="M583.5 512.8L944 152.3c19.4-19.4 19.4-51.3 0-70.7-19.4-19.4-51.3-19.4-70.7 0L512.8 442.1 150.7 80C131.3 60.6 99.5 60.6 80 80c-19.4 19.4-19.4 51.3 0 70.7l362.1 362.1-362 362c-19.4 19.4-19.4 51.3 0 70.7 19.4 19.4 51.3 19.4 70.7 0l362-362L873.3 944c19.4 19.4 51.3 19.4 70.7 0 19.4-19.4 19.4-51.3 0-70.7L583.5 512.8z" p-id="2376"></path></svg>