<svg t="1568613047468" class="icon" viewBox="0 0 1024 1024" version="1.1" xmlns="http://www.w3.org/2000/svg" p-id="8536" width="200" height="200"><path d="M51.2 56.32h921.6c28.27776 0 51.2 22.92224 51.2 51.2s-22.92224 51.2-51.2 51.2H51.2C22.92224 158.72 0 135.79776 0 107.52s22.92224-51.2 51.2-51.2z m0 399.36h921.6c28.27776 0 51.2 22.92224 51.2 51.2s-22.92224 51.2-51.2 51.2H51.2c-28.27776 0-51.2-22.92224-51.2-51.2s22.92224-51.2 51.2-51.2z m0 399.36h921.6c28.27776 0 51.2 22.92224 51.2 51.2s-22.92224 51.2-51.2 51.2H51.2c-28.27776 0-51.2-22.92224-51.2-51.2s22.92224-51.2 51.2-51.2z" p-id="8537"></path></svg>