<svg t="1569309030407" class="icon" viewBox="0 0 1024 1024" version="1.1" xmlns="http://www.w3.org/2000/svg" p-id="2839" width="200" height="200"><path d="M512 127.839597c-282.594193 0-511.978511 280.518928-511.978511 384.160403 0 103.431697 229.384317 382.482181 511.978511 382.482181 282.59931 0 511.391133-276.361235 511.391133-382.482181 0-111.709221-228.791823-384.160403-511.391133-384.160403z m0 703.709253c-244.63158 0-440.161858-259.544221-448.01778-319.54885 7.785314-55.466266 203.242937-320.057433 448.01778-320.057433 247.989047 0 442.430528 262.322497 447.430402 320.057433-6.999414 57.146535-200.227254 319.54885-447.430402 319.54885z" p-id="2840"></path><path d="M512.001023 319.644017c-105.913215 0-191.771675 85.85846-191.771674 191.771675S406.087808 703.18839 512.001023 703.18839c105.909122 0 191.771675-85.85846 191.771675-191.771675s-85.862553-191.772698-191.771675-191.772698z m0.01535 320.022641c-70.479191 0-128.231523-57.791218-128.231523-128.270409s57.752332-127.572514 128.231523-127.572513 127.611399 57.094346 127.611399 127.572513-57.132208 128.270409-127.611399 128.270409z" p-id="2841"></path></svg>