<svg t="1569313277087" class="icon" viewBox="0 0 1024 1024" version="1.1" xmlns="http://www.w3.org/2000/svg" p-id="4523" width="200" height="200"><path d="M499.73107 797.412378c-2.839675 1.13894-6.279007 1.719154-9.698896 1.719154l0 0 0 0c-7.398504 0-13.677511-2.859118-18.237363-7.41897l0 0c-4.558829-4.557806-7.399527-11.417027-7.399527-18.255783l0 0 0 0c0-3.419889 0.560772-6.859221 1.700735-9.698896l0 0c1.139963-3.419889 3.419889-6.279007 5.698792-8.558933l0 0 80.369446-80.464613 0 0c2.278903-2.279926 5.13802-4.559852 8.556886-5.698792 2.839675-1.140986 6.259564-2.28095 9.679453-2.28095 7.417947 0 13.677511 3.419889 18.237363 7.979742 4.558829 4.559852 7.417947 10.837836 7.417947 18.256806 0 3.438309-0.559748 6.858198-1.700735 9.698896l0 0c-1.158383 3.438309-3.437286 6.279007-5.717212 8.55791l0 0-80.350003 80.464613 0 0C506.010077 793.992489 503.149936 795.711644 499.73107 797.412378L499.73107 797.412378zM113.826953 521.242502l376.204198 376.61045 284.998963-285.308001L398.826939 235.365542 128.085702 235.365542c-3.979638 0-7.41897 1.710968-10.258645 4.570085l0 0c-2.840698 2.279926-4.000104 6.268774-4.000104 10.267854L113.826953 521.242502zM419.342182 185.724958c3.439332 1.709945 6.29845 3.418866 8.578376 5.698792l0 0L829.761646 594.289168l0 0c2.840698 2.279926 4.559852 5.119601 5.698792 7.979742l0 0c1.13894 3.419889 2.279926 6.277984 2.279926 10.277064l0 0c0 3.419889-1.139963 6.839779-2.279926 9.698896l0 0c-1.13894 2.860141-2.858094 5.698792-5.698792 8.558933l0 0L508.28898 952.622346l0 0c-2.278903 2.28095-5.13802 4.579295-8.55791 5.719258l0 0c-2.839675 1.139963-6.279007 1.700735-9.698896 1.700735s-6.839779-0.560772-9.67843-1.700735c-3.439332-1.139963-6.277984-3.437286-8.558933-5.719258l0 0L69.374532 550.338167l0-0.560772c-2.279926-2.279926-4.000104-5.13802-5.119601-7.997138-1.720178-3.419889-2.279926-6.279007-2.279926-10.258645L61.975005 250.203482c0-18.266016 7.399527-34.812877 19.376303-46.790676l0 0c11.95938-11.988032 28.497031-19.405979 46.733371-19.405979l0 0L409.663752 184.006827l0 0C413.083641 184.006827 416.503531 184.586019 419.342182 185.724958L419.342182 185.724958zM391.427412 711.24795 391.427412 711.24795c-4.559852-4.559852-7.399527-11.398608-7.399527-18.256806 0-3.419889 0.560772-6.839779 1.700735-10.258645l0 0c1.139963-2.858094 3.419889-5.718235 5.699816-7.997138l19.956517-20.535709c2.278903-2.279926 5.118578-3.999081 8.538467-5.139044 2.859118-1.720178 6.279007-2.28095 9.698896-2.28095l0 0 0 0 0 0c7.41897 0 13.678534 2.861164 18.237363 7.419993l0 0c4.560876 5.13802 7.41897 11.417027 7.41897 18.256806l0 0c0 3.999081-0.580215 6.839779-1.719154 10.277064-1.139963 2.839675-3.419889 5.699816-5.699816 7.980765l0 0-19.936051 20.534685c-2.28095 2.300392-5.139044 4.000104-8.578376 5.718235l0 0c-2.839675 1.139963-6.259564 1.701758-9.67843 1.701758l0 0C402.265248 718.667943 395.986241 715.826222 391.427412 711.24795L391.427412 711.24795zM548.744367 70.456678 950.603875 473.312886l0 0c2.279926 2.278903 4.558829 5.13802 5.697769 8.55791 1.14201 2.849908 1.700735 6.277984 1.700735 9.698896 0 3.429099-0.558725 6.847965-1.700735 9.697873-1.13894 3.429099-3.418866 6.279007-5.697769 8.568143l0 0-60.430324 60.479443 0 0c-2.28095 2.278903-5.120624 3.999081-7.978718 5.697769-3.420913 1.160429-6.839779 1.721201-10.259668 1.721201-6.838755 0-13.677511-2.860141-18.237363-7.41897-4.557806-4.559852-7.416923-11.418051-7.416923-18.257829 0-3.419889 0.577145-6.857175 1.720178-9.698896 1.698688-3.418866 3.418866-6.279007 5.696746-8.556886l0 0 42.173518-42.231847L519.669168 114.968451 248.927931 114.968451l0 0c-3.999081 0-7.978718 1.139963-10.258645 3.988848l0 0c-2.859118 2.859118-4.558829 6.279007-4.558829 10.278087 0 6.838755-2.859118 13.68672-7.41897 18.256806-4.558829 4.559852-10.81737 7.41897-18.237363 7.41897-6.838755 0-13.678534-2.859118-18.237363-7.41897-4.558829-4.569062-7.417947-11.418051-7.417947-18.256806l0 0c0-18.266016 7.417947-34.8139 19.396769-46.791699l0 0c11.958356-11.988032 28.496008-19.405979 46.732347-19.405979l0 0 281.018302 0 0 0c3.979638 0 6.838755 0.569982 10.258645 2.279926 2.838651 1.149173 5.697769 2.859118 7.978718 5.13802L548.744367 70.455655zM499.73107 635.941823c-2.839675 1.699712-6.279007 2.279926-9.698896 2.279926l0 0 0 0c-7.398504 0-13.677511-2.860141-18.237363-7.417947-4.558829-4.559852-7.399527-11.418051-7.399527-18.257829l0 0 0 0c0-3.419889 0.560772-6.857175 1.700735-10.277064 1.139963-2.860141 3.419889-5.699816 5.698792-7.979742l0 0 39.894615-40.512692 0.579191 0c2.28095-2.299369 5.119601-3.999081 7.977695-5.718235 3.419889-1.13894 6.260587-1.700735 9.699919-1.700735l0.559748 0 0 0c6.838755 0 13.117762 2.839675 17.677615 7.41897l0.560772 0c4.558829 4.558829 7.417947 11.398608 7.417947 18.256806l0 0c0 3.419889-0.579191 6.839779-2.28095 9.697873-1.139963 3.419889-2.859118 6.28003-5.13802 8.559956l-40.455387 40.512692C506.010077 633.081683 503.149936 634.80186 499.73107 635.941823L499.73107 635.941823zM238.669286 380.869451c2.279926 2.859118 6.259564 4.569062 10.258645 4.569062l0 0 0 0c3.999081 0 7.399527-1.709945 9.679453-4.569062 2.859118-2.279926 4.559852-6.279007 4.559852-10.267854l0 0 0 0 0 0 0 0c0-4.000104-1.700735-7.41897-4.559852-10.267854-2.279926-2.289136-5.680373-4.000104-9.679453-4.000104l0 0c-3.999081 0-7.978718 1.709945-10.258645 4.000104-2.859118 2.848884-4.558829 6.26775-4.558829 10.267854C234.110457 374.590444 235.809145 378.589524 238.669286 380.869451L238.669286 380.869451zM202.19456 323.808874c11.958356-11.976776 28.496008-19.396769 46.732347-19.396769l0 0c18.237363 0 34.755572 7.41897 46.733371 19.396769 11.398608 11.989055 18.816554 28.534893 18.816554 46.792723 0 18.256806-7.41897 34.802644-18.816554 46.790676-11.978822 11.977799-28.497031 19.397792-46.733371 19.397792l0 0c-18.237363 0-34.773991-7.41897-46.732347-19.397792l0 0c-11.978822-11.988032-19.396769-28.53387-19.396769-46.790676l0 0C182.798814 352.34479 190.216761 335.797929 202.19456 323.808874L202.19456 323.808874z" p-id="4524"></path></svg>